<svg xmlns="http://www.w3.org/2000/svg" width="1200" height="630" viewBox="0 0 1200 630"><defs><linearGradient id="bg" x1="0" y1="0" x2="1" y2="1"><stop stop-color="#070812"/><stop offset=".5" stop-color="#111a38"/><stop offset="1" stop-color="#1a0b2a"/></linearGradient><linearGradient id="g" x1="0" y1="0" x2="1" y2="0"><stop stop-color="#2ee59d"/><stop offset=".5" stop-color="#7c8cff"/><stop offset="1" stop-color="#ff5ee7"/></linearGradient><filter id="glow"><feGaussianBlur stdDeviation="12" result="b"/><feMerge><feMergeNode in="b"/><feMergeNode in="SourceGraphic"/></feMerge></filter></defs><rect width="1200" height="630" fill="url(#bg)"/><circle cx="1040" cy="90" r="260" fill="#ff5ee7" opacity=".13"/><circle cx="150" cy="70" r="290" fill="#7c8cff" opacity=".20"/><g opacity=".22" stroke="#7c8cff"><path d="M0 520C170 430 250 610 410 510S680 360 850 460s230 10 350-70" fill="none"/><path d="M0 430C190 340 280 520 470 430s300-200 500-80 170 80 230 40" fill="none"/></g><text x="70" y="180" fill="#aab3d3" font-family="Arial, sans-serif" font-size="32" font-weight="700">FREE AUDIO PLUGINS · SAMPLE PACKS · RELEASE ROUTING</text><text x="70" y="300" fill="#fff" font-family="Arial, sans-serif" font-size="88" font-weight="900">TizWildin</text><text x="70" y="392" fill="url(#g)" filter="url(#glow)" font-family="Arial, sans-serif" font-size="86" font-weight="900">Entertainment HUB</text><text x="74" y="475" fill="#dbe1ff" font-family="Arial, sans-serif" font-size="34">FreeEQ8 • JUCE/VST3 tools • Producer ecosystem</text><rect x="70" y="525" width="410" height="46" rx="23" fill="none" stroke="url(#g)" stroke-width="3"/><text x="96" y="557" fill="#fff" font-family="Arial, sans-serif" font-size="24" font-weight="700">github.com/GareBear99</text></svg>
